<svg width="32" height="32" viewBox="0 0 32 32" fill="none" xmlns="http://www.w3.org/2000/svg">
<g clip-path="url(#clip0_360_62)">
<g clip-path="url(#clip1_360_62)">
<path fill-rule="evenodd" clip-rule="evenodd" d="M5.70194 3.41172C5.70194 2.7797 5.18958 2.26733 4.55755 2.26733V2.26733C3.92552 2.26733 3.41316 2.77969 3.41316 3.41172V12.5668C3.41316 13.1989 3.92552 13.7112 4.55755 13.7112V13.7112C5.18958 13.7112 5.70194 13.1989 5.70194 12.5668V3.41172ZM20.1927 13.0497C19.8582 13.4678 19.3518 13.7112 18.8163 13.7112H13.2893C12.6925 13.7112 12.1317 13.4257 11.7807 12.943V12.943C11.5488 12.6241 11.4239 12.24 11.4239 11.8458V10.7954C11.4239 10.3884 11.5732 9.99559 11.8436 9.69141V9.69141C12.159 9.33665 12.611 9.13367 13.0856 9.13367H18.8163C19.3518 9.13367 19.8582 9.37708 20.1927 9.79522V9.79522C20.4428 10.1078 20.579 10.4961 20.579 10.8964V11.9485C20.579 12.3488 20.4428 12.7371 20.1927 13.0497V13.0497ZM8.74884 19.916C8.41433 20.3341 7.90788 20.5776 7.37239 20.5776H1.74271C1.20723 20.5776 0.700776 20.3341 0.366262 19.916V19.916C0.11622 19.6034 -0.0200043 19.2151 -0.0200043 18.8148V17.7627C-0.0200043 17.3625 0.11622 16.9741 0.366262 16.6616V16.6616C0.700776 16.2434 1.20723 16 1.74271 16H7.37239C7.90788 16 8.41433 16.2434 8.74884 16.6616V16.6616C8.99888 16.9741 9.13511 17.3625 9.13511 17.7627V18.8148C9.13511 19.2151 8.99888 19.6034 8.74884 19.916V19.916ZM17.1458 3.41172C17.1458 2.77969 16.6335 2.26733 16.0014 2.26733V2.26733C15.3694 2.26733 14.8571 2.77969 14.8571 3.41172V5.7005C14.8571 6.33253 15.3694 6.84489 16.0014 6.84489V6.84489C16.6335 6.84489 17.1458 6.33253 17.1458 5.7005V3.41172ZM14.8571 17.1444C14.8571 16.5124 15.3694 16 16.0014 16V16C16.6335 16 17.1458 16.5124 17.1458 17.1444V28.5883C17.1458 29.2203 16.6335 29.7327 16.0014 29.7327V29.7327C15.3694 29.7327 14.8571 29.2203 14.8571 28.5883V17.1444ZM5.70194 24.0107C5.70194 23.3787 5.18958 22.8663 4.55755 22.8663V22.8663C3.92552 22.8663 3.41316 23.3787 3.41316 24.0107V28.5883C3.41316 29.2203 3.92552 29.7327 4.55755 29.7327V29.7327C5.18958 29.7327 5.70194 29.2203 5.70194 28.5883V24.0107ZM23.254 22.2048C23.5886 22.6229 24.095 22.8663 24.6305 22.8663H30.2373C30.7728 22.8663 31.2792 22.6229 31.6137 22.2048V22.2048C31.8638 21.8922 32 21.5039 32 21.1036V20.1659C32 19.7657 31.8638 19.3773 31.6137 19.0648V19.0648C31.2792 18.6466 30.7728 18.4032 30.2373 18.4032H24.6305C24.095 18.4032 23.5886 18.6466 23.254 19.0648V19.0648C23.004 19.3773 22.8678 19.7657 22.8678 20.1659V21.1036C22.8678 21.5039 23.004 21.8922 23.254 22.2048V22.2048ZM28.5897 3.41172C28.5897 2.77969 28.0774 2.26733 27.4453 2.26733V2.26733C26.8133 2.26733 26.3009 2.77969 26.3009 3.41172V14.8556C26.3009 15.4876 26.8133 16 27.4453 16V16C28.0774 16 28.5897 15.4876 28.5897 14.8556V3.41172ZM26.3009 26.2995C26.3009 25.6675 26.8133 25.1551 27.4453 25.1551V25.1551C28.0774 25.1551 28.5897 25.6675 28.5897 26.2995V28.5883C28.5897 29.2203 28.0774 29.7327 27.4453 29.7327V29.7327C26.8133 29.7327 26.3009 29.2203 26.3009 28.5883V26.2995Z" fill="#AAAAAA"/>
</g>
</g>
<defs>
<clipPath id="clip0_360_62">
<rect width="32" height="32" fill="white"/>
</clipPath>
<clipPath id="clip1_360_62">
<rect width="32" height="32" fill="white"/>
</clipPath>
</defs>
</svg>
