<svg width="32" height="32" viewBox="0 0 32 32" fill="none" xmlns="http://www.w3.org/2000/svg">
<g clip-path="url(#clip0_302_168)">
<g clip-path="url(#clip1_302_168)">
<path d="M23.3333 8.66665L30.6667 12V29.3333L21.3333 25.3333M21.3333 25.3333L10.6667 29.3333M21.3333 25.3333V16M10.6667 29.3333L1.33334 25.3333V7.99998L8 10.6666M10.6667 29.3333V16M16 21.6973C16 21.6973 8 15.3333 8 9.33331C8 4.33331 12 1.33331 16 1.33331C20 1.33331 24 4.33331 24 9.33331C24 15.3333 16 21.6973 16 21.6973ZM17.3333 9.33331C17.3333 8.97969 17.1929 8.64055 16.9428 8.3905C16.6928 8.14046 16.3536 7.99998 16 7.99998C15.6464 7.99998 15.3072 8.14046 15.0572 8.3905C14.8071 8.64055 14.6667 8.97969 14.6667 9.33331C14.6667 9.68694 14.8071 10.0261 15.0572 10.2761C15.3072 10.5262 15.6464 10.6666 16 10.6666C16.3536 10.6666 16.6928 10.5262 16.9428 10.2761C17.1929 10.0261 17.3333 9.68694 17.3333 9.33331Z" stroke="#AAAAAA" stroke-width="2.66667"/>
</g>
</g>
<defs>
<clipPath id="clip0_302_168">
<rect width="32" height="32" fill="white"/>
</clipPath>
<clipPath id="clip1_302_168">
<rect width="32" height="32" fill="white"/>
</clipPath>
</defs>
</svg>
