<svg width="32" height="32" viewBox="0 0 32 32" fill="none" xmlns="http://www.w3.org/2000/svg">
<path d="M28.8 2H3.2C1.4352 2 0 3.39533 0 5.11111V26.8889C0 28.6047 1.4352 30 3.2 30H28.8C30.5648 30 32 28.6047 32 26.8889V5.11111C32 3.39533 30.5648 2 28.8 2ZM4.5 27.5C3.39543 27.5 2.5 26.6046 2.5 25.5V6.5C2.5 5.39543 3.39543 4.5 4.5 4.5H27.5C28.6046 4.5 29.5 5.39543 29.5 6.5V25.5C29.5 26.6046 28.6046 27.5 27.5 27.5H4.5Z" fill="#AAAAAA"/>
<path d="M6 9.85C6 9.10442 6.60442 8.5 7.35 8.5H24.65C25.3956 8.5 26 9.10442 26 9.85V9.85C26 10.5956 25.3956 11.2 24.65 11.2H7.35C6.60442 11.2 6 10.5956 6 9.85V9.85ZM6 16.3C6 15.582 6.58203 15 7.3 15H24.7C25.418 15 26 15.582 26 16.3V16.3C26 17.018 25.418 17.6 24.7 17.6H7.3C6.58203 17.6 6 17.018 6 16.3V16.3ZM6 21.9C6 21.2925 6.49249 20.8 7.1 20.8H14.9C15.5075 20.8 16 21.2925 16 21.9V21.9C16 22.5075 15.5075 23 14.9 23H7.1C6.49249 23 6 22.5075 6 21.9V21.9Z" fill="#AAAAAA"/>
</svg>
